<?xml version="1.0" encoding="UTF-8"?>
<!DOCTYPE svg PUBLIC "-//W3C//DTD SVG 1.1//EN" "http://www.w3.org/Graphics/SVG/1.1/DTD/svg11.dtd">
<!-- Creator: CorelDRAW X8 -->
<svg xmlns="http://www.w3.org/2000/svg" xml:space="preserve" width="210mm" height="210mm" version="1.1" style="shape-rendering:geometricPrecision; text-rendering:geometricPrecision; image-rendering:optimizeQuality; fill-rule:evenodd; clip-rule:evenodd"
viewBox="0 0 21000 21000"
 xmlns:xlink="http://www.w3.org/1999/xlink">
 <defs>
  <style type="text/css">
   <![CDATA[
    .fil0 {fill:black;fill-rule:nonzero}
   ]]>
  </style>
 </defs>
 <g id="Слой_x0020_1">
  <metadata id="CorelCorpID_0Corel-Layer"/>
  <g id="_989461712">
   <g>
    <path class="fil0" d="M20500 17437c35,0 64,28 64,63 0,35 -29,63 -64,63l0 -126zm-20000 0l20000 0 0 126 -20000 0 0 -126zm0 126c-35,0 -63,-28 -63,-63 0,-35 28,-63 63,-63l0 126z"/>
   </g>
   <g>
    <path class="fil0" d="M20500 10437c35,0 64,28 64,63 0,35 -29,63 -64,63l0 -126zm-20000 0l20000 0 0 126 -20000 0 0 -126zm0 126c-35,0 -63,-28 -63,-63 0,-35 28,-63 63,-63l0 126z"/>
   </g>
   <g>
    <path class="fil0" d="M20500 3437c35,0 64,28 64,63 0,35 -29,64 -64,64l0 -127zm-20000 0l20000 0 0 127 -20000 0 0 -127zm0 127c-35,0 -63,-29 -63,-64 0,-35 28,-63 63,-63l0 127z"/>
   </g>
  </g>
 </g>
</svg>
