<?xml version="1.0" encoding="utf-8"?>
<!-- Generator: Adobe Illustrator 23.0.0, SVG Export Plug-In . SVG Version: 6.00 Build 0)  -->
<svg version="1.1" id="Слой_1" xmlns="http://www.w3.org/2000/svg" xmlns:xlink="http://www.w3.org/1999/xlink" x="0px" y="0px"
	 viewBox="0 0 109.3 27.1" style="enable-background:new 0 0 109.3 27.1;" xml:space="preserve">
<style type="text/css">
	.st0{fill:#FFFFFF;}
</style>
<path class="st0" d="M25.2,25c-0.3,0.4-0.8,0.6-1.4,0.6c-0.6,0-1.1-0.2-1.4-0.7v0.6h-0.6v-5.6h0.7v2.1c0.3-0.4,0.7-0.7,1.4-0.7
	c0.6,0,1,0.2,1.3,0.6c0.3,0.4,0.5,0.9,0.5,1.6C25.7,24.1,25.6,24.6,25.2,25L25.2,25z M24.7,22.3c-0.2-0.3-0.5-0.4-0.9-0.4
	c-0.4,0-0.8,0.2-1,0.5c-0.2,0.3-0.3,0.7-0.3,1.1c0,0.5,0.1,0.9,0.3,1.1c0.2,0.3,0.5,0.4,0.9,0.4c0.4,0,0.7-0.1,0.9-0.4
	c0.2-0.3,0.3-0.7,0.3-1.2C25.1,22.9,24.9,22.6,24.7,22.3L24.7,22.3z M29.3,25.5v-0.6c-0.3,0.5-0.8,0.8-1.4,0.8c-0.4,0-0.8-0.1-1-0.4
	c-0.2-0.2-0.4-0.6-0.4-1v-2.8h0.7V24c0,0.3,0.1,0.6,0.2,0.7c0.1,0.2,0.3,0.2,0.7,0.2c0.8,0,1.2-0.5,1.2-1.5v-2.1H30v4.1H29.3
	L29.3,25.5z M31.6,22.6C31.6,22.7,31.6,22.7,31.6,22.6c0.1,0.1,0.1,0.1,0.2,0.2c0.1,0,0.1,0,0.1,0.1c0,0,0.1,0,0.2,0.1
	c0.1,0,0.1,0,0.2,0c0,0,0.1,0,0.2,0c0.1,0,0.2,0,0.2,0c0.2,0,0.3,0.1,0.4,0.1c0.1,0,0.2,0.1,0.4,0.1c0.2,0.1,0.3,0.1,0.4,0.2
	c0.1,0.1,0.2,0.2,0.2,0.3c0.1,0.1,0.1,0.3,0.1,0.5c0,0.4-0.2,0.7-0.5,1c-0.3,0.2-0.7,0.4-1.2,0.4c-0.6,0-1-0.1-1.3-0.4
	c-0.3-0.2-0.5-0.6-0.5-1.1h0.7c0,0.6,0.4,0.9,1.1,0.9c0.3,0,0.5-0.1,0.7-0.2c0.2-0.1,0.3-0.3,0.3-0.5c0-0.1,0-0.3-0.1-0.3
	c-0.1-0.1-0.2-0.2-0.3-0.2c-0.1,0-0.3-0.1-0.5-0.1c0,0-0.1,0-0.1,0c0,0-0.1,0-0.3-0.1c-0.2,0-0.3-0.1-0.3-0.1
	c-0.1,0-0.2-0.1-0.3-0.1c-0.1,0-0.2-0.1-0.3-0.1c-0.1-0.1-0.1-0.1-0.2-0.2c-0.1-0.1-0.1-0.2-0.2-0.3c0-0.1,0-0.2,0-0.4
	c0-0.4,0.1-0.7,0.4-0.9c0.3-0.2,0.7-0.3,1.1-0.3c0.5,0,0.9,0.1,1.2,0.3c0.3,0.2,0.5,0.5,0.5,1h-0.7c0-0.5-0.4-0.7-1-0.7
	c-0.3,0-0.5,0.1-0.6,0.2c-0.1,0.1-0.2,0.2-0.2,0.4c0,0,0,0.1,0,0.1C31.5,22.6,31.5,22.6,31.6,22.6L31.6,22.6z M35,25.5v-4.1h0.7v4.1
	H35L35,25.5z M35,19.8h0.7v0.8H35V19.8L35,19.8z M39.4,25.5v-2.4c0-0.2,0-0.4,0-0.5c0-0.1,0-0.2-0.1-0.4c-0.1-0.1-0.1-0.2-0.3-0.3
	c-0.1-0.1-0.3-0.1-0.5-0.1c-0.8,0-1.2,0.5-1.2,1.5v2.1h-0.7v-4.1h0.6V22c0.3-0.5,0.8-0.7,1.4-0.7c0.5,0,0.8,0.1,1,0.4
	c0.2,0.3,0.3,0.6,0.3,1.1v2.7H39.4L39.4,25.5z M41.5,23.6L41.5,23.6c0,0.5,0.1,0.8,0.3,1.1c0.2,0.2,0.5,0.4,0.9,0.4
	c0.3,0,0.5-0.1,0.7-0.2c0.2-0.1,0.3-0.4,0.4-0.7h0.7c-0.2,0.9-0.8,1.4-1.8,1.4c-0.6,0-1.1-0.2-1.4-0.6c-0.3-0.4-0.5-0.9-0.5-1.6
	c0-0.7,0.2-1.2,0.5-1.6c0.3-0.4,0.8-0.6,1.4-0.6c0.6,0,1.1,0.2,1.4,0.6c0.3,0.4,0.5,1,0.5,1.6v0.1H41.5L41.5,23.6z M43.5,22.1
	c-0.2-0.2-0.5-0.3-0.8-0.3c-0.3,0-0.6,0.1-0.8,0.3c-0.2,0.2-0.3,0.5-0.4,0.9h2.4C43.9,22.7,43.8,22.4,43.5,22.1L43.5,22.1z
	 M45.9,22.6C45.9,22.7,46,22.7,45.9,22.6c0.1,0.1,0.1,0.1,0.2,0.2c0.1,0,0.1,0,0.1,0.1c0,0,0.1,0,0.2,0.1c0.1,0,0.1,0,0.2,0
	c0,0,0.1,0,0.2,0c0.1,0,0.2,0,0.2,0c0.2,0,0.3,0.1,0.4,0.1c0.1,0,0.2,0.1,0.4,0.1c0.2,0.1,0.3,0.1,0.4,0.2c0.1,0.1,0.2,0.2,0.2,0.3
	c0.1,0.1,0.1,0.3,0.1,0.5c0,0.4-0.2,0.7-0.5,1c-0.3,0.2-0.7,0.4-1.2,0.4c-0.6,0-1-0.1-1.3-0.4c-0.3-0.2-0.5-0.6-0.5-1.1h0.7
	c0,0.6,0.4,0.9,1.1,0.9c0.3,0,0.5-0.1,0.7-0.2c0.2-0.1,0.3-0.3,0.3-0.5c0-0.1,0-0.3-0.1-0.3c-0.1-0.1-0.2-0.2-0.3-0.2
	c-0.1,0-0.3-0.1-0.5-0.1c0,0-0.1,0-0.1,0c0,0-0.1,0-0.3-0.1c-0.2,0-0.3-0.1-0.3-0.1c-0.1,0-0.2-0.1-0.3-0.1c-0.1,0-0.2-0.1-0.3-0.1
	c-0.1-0.1-0.1-0.1-0.2-0.2c-0.1-0.1-0.1-0.2-0.2-0.3c0-0.1,0-0.2,0-0.4c0-0.4,0.1-0.7,0.4-0.9c0.3-0.2,0.7-0.3,1.1-0.3
	c0.5,0,0.9,0.1,1.2,0.3c0.3,0.2,0.5,0.5,0.5,1h-0.7c0-0.5-0.4-0.7-1-0.7c-0.3,0-0.5,0.1-0.6,0.2c-0.1,0.1-0.2,0.2-0.2,0.4
	c0,0,0,0.1,0,0.1C45.9,22.6,45.9,22.6,45.9,22.6L45.9,22.6z M49.9,22.6C49.9,22.7,49.9,22.7,49.9,22.6c0.1,0.1,0.1,0.1,0.2,0.2
	c0.1,0,0.1,0,0.1,0.1c0,0,0.1,0,0.2,0.1c0.1,0,0.1,0,0.2,0c0,0,0.1,0,0.2,0c0.1,0,0.2,0,0.2,0c0.2,0,0.3,0.1,0.4,0.1
	c0.1,0,0.2,0.1,0.4,0.1c0.2,0.1,0.3,0.1,0.4,0.2c0.1,0.1,0.2,0.2,0.2,0.3c0.1,0.1,0.1,0.3,0.1,0.5c0,0.4-0.2,0.7-0.5,1
	c-0.3,0.2-0.7,0.4-1.2,0.4c-0.6,0-1-0.1-1.3-0.4C49.2,25,49,24.6,49,24.2h0.7c0,0.6,0.4,0.9,1.1,0.9c0.3,0,0.5-0.1,0.7-0.2
	c0.2-0.1,0.3-0.3,0.3-0.5c0-0.1,0-0.3-0.1-0.3c-0.1-0.1-0.2-0.2-0.3-0.2c-0.1,0-0.3-0.1-0.5-0.1c0,0-0.1,0-0.1,0c0,0-0.1,0-0.3-0.1
	c-0.2,0-0.3-0.1-0.3-0.1c-0.1,0-0.2-0.1-0.3-0.1c-0.1,0-0.2-0.1-0.3-0.1c-0.1-0.1-0.1-0.1-0.2-0.2c-0.1-0.1-0.1-0.2-0.2-0.3
	c0-0.1,0-0.2,0-0.4c0-0.4,0.1-0.7,0.4-0.9c0.3-0.2,0.7-0.3,1.1-0.3c0.5,0,0.9,0.1,1.2,0.3c0.3,0.2,0.5,0.5,0.5,1h-0.7
	c0-0.5-0.4-0.7-1-0.7c-0.3,0-0.5,0.1-0.6,0.2c-0.1,0.1-0.2,0.2-0.2,0.4c0,0,0,0.1,0,0.1C49.8,22.6,49.8,22.6,49.9,22.6L49.9,22.6z
	 M56,22.6C56,22.7,56.1,22.7,56,22.6c0.1,0.1,0.1,0.1,0.2,0.2c0.1,0,0.1,0,0.1,0.1c0,0,0.1,0,0.2,0.1c0.1,0,0.1,0,0.2,0
	c0,0,0.1,0,0.2,0c0.1,0,0.2,0,0.2,0c0.2,0,0.3,0.1,0.4,0.1c0.1,0,0.2,0.1,0.4,0.1c0.2,0.1,0.3,0.1,0.4,0.2c0.1,0.1,0.2,0.2,0.2,0.3
	c0.1,0.1,0.1,0.3,0.1,0.5c0,0.4-0.2,0.7-0.5,1c-0.3,0.2-0.7,0.4-1.2,0.4c-0.6,0-1-0.1-1.3-0.4c-0.3-0.2-0.5-0.6-0.5-1.1h0.7
	c0,0.6,0.4,0.9,1.1,0.9c0.3,0,0.5-0.1,0.7-0.2c0.2-0.1,0.3-0.3,0.3-0.5c0-0.1,0-0.3-0.1-0.3c-0.1-0.1-0.2-0.2-0.3-0.2
	c-0.1,0-0.3-0.1-0.5-0.1c0,0-0.1,0-0.1,0c0,0-0.1,0-0.3-0.1c-0.2,0-0.3-0.1-0.3-0.1c-0.1,0-0.2-0.1-0.3-0.1c-0.1,0-0.2-0.1-0.3-0.1
	c-0.1-0.1-0.1-0.1-0.2-0.2c-0.1-0.1-0.1-0.2-0.2-0.3c0-0.1,0-0.2,0-0.4c0-0.4,0.1-0.7,0.4-0.9c0.3-0.2,0.7-0.3,1.1-0.3
	c0.5,0,0.9,0.1,1.2,0.3c0.3,0.2,0.5,0.5,0.5,1h-0.7c0-0.5-0.4-0.7-1-0.7c-0.3,0-0.5,0.1-0.6,0.2c-0.1,0.1-0.2,0.2-0.2,0.4
	c0,0,0,0.1,0,0.1C56,22.6,56,22.6,56,22.6L56,22.6z M62.1,25.5v-0.6c-0.3,0.5-0.8,0.8-1.4,0.8c-0.4,0-0.8-0.1-1-0.4
	c-0.2-0.2-0.4-0.6-0.4-1v-2.8H60V24c0,0.3,0.1,0.6,0.2,0.7c0.1,0.2,0.3,0.2,0.7,0.2c0.8,0,1.2-0.5,1.2-1.5v-2.1h0.7v4.1H62.1
	L62.1,25.5z M67.1,25c-0.3,0.4-0.8,0.6-1.3,0.6c-0.6,0-1-0.2-1.4-0.7V27h-0.7v-5.6h0.6V22c0.3-0.5,0.8-0.7,1.4-0.7
	c0.6,0,1,0.2,1.4,0.6c0.3,0.4,0.5,0.9,0.5,1.6C67.6,24.1,67.4,24.6,67.1,25L67.1,25z M66.6,22.2c-0.2-0.3-0.5-0.4-0.9-0.4
	c-0.4,0-0.7,0.1-0.9,0.4c-0.2,0.3-0.3,0.7-0.3,1.2c0,0.5,0.1,0.9,0.3,1.2c0.2,0.3,0.5,0.4,0.9,0.4c0.4,0,0.7-0.1,0.9-0.4
	c0.2-0.3,0.3-0.7,0.3-1.2C66.9,22.9,66.8,22.5,66.6,22.2L66.6,22.2z M71.8,25c-0.3,0.4-0.8,0.6-1.3,0.6c-0.6,0-1-0.2-1.4-0.7V27
	h-0.7v-5.6h0.6V22c0.3-0.5,0.8-0.7,1.4-0.7c0.6,0,1,0.2,1.4,0.6c0.3,0.4,0.5,0.9,0.5,1.6C72.3,24.1,72.1,24.6,71.8,25L71.8,25z
	 M71.3,22.2c-0.2-0.3-0.5-0.4-0.9-0.4c-0.4,0-0.7,0.1-0.9,0.4c-0.2,0.3-0.3,0.7-0.3,1.2c0,0.5,0.1,0.9,0.3,1.2
	c0.2,0.3,0.5,0.4,0.9,0.4c0.4,0,0.7-0.1,0.9-0.4c0.2-0.3,0.3-0.7,0.3-1.2C71.6,22.9,71.5,22.5,71.3,22.2L71.3,22.2z M76.3,25
	c-0.3,0.4-0.8,0.6-1.4,0.6c-0.6,0-1.1-0.2-1.5-0.6c-0.4-0.4-0.5-0.9-0.5-1.6c0-0.7,0.2-1.2,0.5-1.6c0.4-0.4,0.8-0.6,1.5-0.6
	c0.6,0,1.1,0.2,1.4,0.6c0.3,0.4,0.5,0.9,0.5,1.6C76.9,24.1,76.7,24.6,76.3,25L76.3,25z M75.8,22.3c-0.2-0.3-0.5-0.4-0.9-0.4
	c-0.4,0-0.7,0.1-0.9,0.4c-0.2,0.3-0.3,0.7-0.3,1.2c0,0.5,0.1,0.9,0.3,1.2c0.2,0.3,0.5,0.4,1,0.4c0.4,0,0.7-0.1,0.9-0.4
	c0.2-0.3,0.3-0.7,0.3-1.2C76.2,22.9,76.1,22.5,75.8,22.3L75.8,22.3z M79.6,22c-0.2,0-0.4,0-0.6,0.1c-0.2,0.1-0.3,0.2-0.4,0.3
	c-0.1,0.1-0.2,0.2-0.2,0.4c-0.1,0.2-0.1,0.3-0.1,0.5c0,0.2,0,0.3,0,0.5v1.7h-0.7v-4.1h0.6v0.9c0.3-0.6,0.8-1,1.5-1V22
	C79.7,22,79.7,22,79.6,22L79.6,22z M81.2,24.6c0,0,0,0.1,0,0.2c0,0.1,0.1,0.1,0.1,0.1c0.1,0,0.2,0,0.3,0c0.1,0,0.2,0,0.4,0v0.6
	c-0.2,0-0.4,0-0.5,0c-0.2,0-0.3,0-0.5-0.1c-0.1,0-0.2-0.1-0.3-0.1c-0.1-0.1-0.1-0.1-0.1-0.3c0-0.1-0.1-0.2-0.1-0.3
	c0-0.1,0-0.2,0-0.5c0,0,0-0.1,0-0.1v-2.2h-0.7v-0.6h0.7v-1.2h0.7v1.2H82v0.6h-0.8v2.4C81.2,24.4,81.2,24.5,81.2,24.6L81.2,24.6z
	 M85.6,22.6C85.6,22.7,85.6,22.7,85.6,22.6c0.1,0.1,0.1,0.1,0.2,0.2c0.1,0,0.1,0,0.1,0.1c0,0,0.1,0,0.2,0.1c0.1,0,0.1,0,0.2,0
	c0,0,0.1,0,0.2,0c0.1,0,0.2,0,0.2,0c0.2,0,0.3,0.1,0.4,0.1c0.1,0,0.2,0.1,0.4,0.1c0.2,0.1,0.3,0.1,0.4,0.2c0.1,0.1,0.2,0.2,0.2,0.3
	c0.1,0.1,0.1,0.3,0.1,0.5c0,0.4-0.2,0.7-0.5,1c-0.3,0.2-0.7,0.4-1.2,0.4c-0.6,0-1-0.1-1.3-0.4c-0.3-0.2-0.5-0.6-0.5-1.1h0.7
	c0,0.6,0.4,0.9,1.1,0.9c0.3,0,0.5-0.1,0.7-0.2c0.2-0.1,0.3-0.3,0.3-0.5c0-0.1,0-0.3-0.1-0.3c-0.1-0.1-0.2-0.2-0.3-0.2
	c-0.1,0-0.3-0.1-0.5-0.1c0,0-0.1,0-0.1,0c0,0-0.1,0-0.3-0.1c-0.2,0-0.3-0.1-0.3-0.1c-0.1,0-0.2-0.1-0.3-0.1c-0.1,0-0.2-0.1-0.3-0.1
	c-0.1-0.1-0.1-0.1-0.2-0.2c-0.1-0.1-0.1-0.2-0.2-0.3c0-0.1,0-0.2,0-0.4c0-0.4,0.1-0.7,0.4-0.9c0.3-0.2,0.7-0.3,1.1-0.3
	c0.5,0,0.9,0.1,1.2,0.3c0.3,0.2,0.5,0.5,0.5,1h-0.7c0-0.5-0.4-0.7-1-0.7c-0.3,0-0.5,0.1-0.6,0.2c-0.1,0.1-0.2,0.2-0.2,0.4
	c0,0,0,0.1,0,0.1C85.5,22.6,85.5,22.6,85.6,22.6L85.6,22.6z M90.5,26c-0.1,0.2-0.1,0.3-0.2,0.4c-0.1,0.1-0.1,0.2-0.2,0.3
	c-0.1,0.1-0.2,0.2-0.3,0.3s-0.3,0.1-0.5,0.1c-0.1,0-0.3,0-0.5-0.1v-0.6c0.2,0.1,0.3,0.1,0.4,0.1c0.2,0,0.4-0.1,0.5-0.3l0.3-0.7
	l-1.6-4.1h0.8l1.2,3.2l1.1-3.2h0.7L90.5,26L90.5,26z M93.5,22.6C93.5,22.7,93.5,22.7,93.5,22.6c0.1,0.1,0.1,0.1,0.2,0.2
	c0.1,0,0.1,0,0.1,0.1c0,0,0.1,0,0.2,0.1c0.1,0,0.1,0,0.2,0c0,0,0.1,0,0.2,0c0.1,0,0.2,0,0.2,0c0.2,0,0.3,0.1,0.4,0.1
	c0.1,0,0.2,0.1,0.4,0.1c0.2,0.1,0.3,0.1,0.4,0.2c0.1,0.1,0.2,0.2,0.2,0.3c0.1,0.1,0.1,0.3,0.1,0.5c0,0.4-0.2,0.7-0.5,1
	c-0.3,0.2-0.7,0.4-1.2,0.4c-0.6,0-1-0.1-1.3-0.4c-0.3-0.2-0.5-0.6-0.5-1.1h0.7c0,0.6,0.4,0.9,1.1,0.9c0.3,0,0.5-0.1,0.7-0.2
	c0.2-0.1,0.3-0.3,0.3-0.5c0-0.1,0-0.3-0.1-0.3c-0.1-0.1-0.2-0.2-0.3-0.2c-0.1,0-0.3-0.1-0.5-0.1c0,0-0.1,0-0.1,0c0,0-0.1,0-0.3-0.1
	c-0.2,0-0.3-0.1-0.3-0.1c-0.1,0-0.2-0.1-0.3-0.1c-0.1,0-0.2-0.1-0.3-0.1c-0.1-0.1-0.1-0.1-0.2-0.2c-0.1-0.1-0.1-0.2-0.2-0.3
	c0-0.1,0-0.2,0-0.4c0-0.4,0.1-0.7,0.4-0.9c0.3-0.2,0.7-0.3,1.1-0.3c0.5,0,0.9,0.1,1.2,0.3c0.3,0.2,0.5,0.5,0.5,1h-0.7
	c0-0.5-0.4-0.7-1-0.7c-0.3,0-0.5,0.1-0.6,0.2c-0.1,0.1-0.2,0.2-0.2,0.4c0,0,0,0.1,0,0.1C93.4,22.6,93.4,22.6,93.5,22.6L93.5,22.6z
	 M97.8,24.6c0,0,0,0.1,0,0.2c0,0.1,0.1,0.1,0.1,0.1c0.1,0,0.2,0,0.3,0c0.1,0,0.2,0,0.4,0v0.6c-0.2,0-0.4,0-0.5,0
	c-0.2,0-0.3,0-0.5-0.1c-0.1,0-0.2-0.1-0.3-0.1c-0.1-0.1-0.1-0.1-0.1-0.3c0-0.1-0.1-0.2-0.1-0.3c0-0.1,0-0.2,0-0.5c0,0,0-0.1,0-0.1
	v-2.2h-0.7v-0.6h0.7v-1.2h0.7v1.2h0.8v0.6h-0.8v2.4C97.7,24.4,97.7,24.5,97.8,24.6L97.8,24.6z M99.8,23.6L99.8,23.6
	c0,0.5,0.1,0.8,0.3,1.1c0.2,0.2,0.5,0.4,0.9,0.4c0.3,0,0.5-0.1,0.7-0.2c0.2-0.1,0.3-0.4,0.4-0.7h0.7c-0.2,0.9-0.8,1.4-1.8,1.4
	c-0.6,0-1.1-0.2-1.4-0.6c-0.3-0.4-0.5-0.9-0.5-1.6c0-0.7,0.2-1.2,0.5-1.6c0.3-0.4,0.8-0.6,1.4-0.6c0.6,0,1.1,0.2,1.4,0.6
	c0.3,0.4,0.5,1,0.5,1.6v0.1H99.8L99.8,23.6z M101.8,22.1c-0.2-0.2-0.5-0.3-0.8-0.3c-0.3,0-0.6,0.1-0.8,0.3c-0.2,0.2-0.3,0.5-0.4,0.9
	h2.4C102.1,22.7,102,22.4,101.8,22.1L101.8,22.1z M108.6,25.5v-2.6c0-0.3-0.1-0.6-0.2-0.8c-0.1-0.2-0.3-0.3-0.7-0.3
	c-0.7,0-1,0.4-1,1.3v2.3h-0.7v-2.6c0-0.3-0.1-0.5-0.2-0.7c-0.1-0.2-0.3-0.2-0.6-0.2c-0.4,0-0.7,0.1-0.9,0.4c-0.2,0.3-0.2,0.6-0.2,1
	v2.2h-0.7v-4.1h0.6V22c0.2-0.2,0.4-0.4,0.6-0.5c0.2-0.1,0.5-0.2,0.8-0.2c0.6,0,0.9,0.2,1.1,0.7c0.4-0.5,0.8-0.7,1.4-0.7
	c0.4,0,0.7,0.1,1,0.4c0.2,0.2,0.3,0.6,0.3,1v2.9H108.6L108.6,25.5z"/>
<path class="st0" d="M24.7,6.3c0.2,0.2,0.4,0.3,0.6,0.4c0.2,0.1,0.5,0.2,0.9,0.4c0.4,0.1,0.8,0.2,1,0.3c0.3,0.1,0.7,0.1,1.2,0.3
	c0.7,0.1,1.2,0.3,1.7,0.4c0.4,0.1,1,0.3,1.6,0.6c0.6,0.3,1.1,0.5,1.5,0.9c0.4,0.3,0.7,0.7,0.9,1.3c0.3,0.5,0.4,1.1,0.4,1.8
	c0,1.2-0.3,2.1-1,2.9c-0.6,0.8-1.4,1.3-2.4,1.6c-0.9,0.3-1.9,0.5-3.1,0.5c-2.1,0-3.7-0.5-4.9-1.5c-1.2-1-1.9-2.4-1.9-4.3h2.1
	c0,1.4,0.5,2.4,1.4,3.1c0.9,0.6,2.1,1,3.5,1c1.1,0,2.1-0.2,2.9-0.7c0.8-0.5,1.2-1.2,1.2-2.3c0-0.5-0.1-0.9-0.3-1.3
	c-0.2-0.3-0.6-0.6-1-0.9c-0.5-0.2-0.9-0.4-1.4-0.5c-0.5-0.1-1.1-0.3-1.8-0.5c-0.1,0-0.2,0-0.2,0c-1.7-0.4-2.8-0.7-3.3-0.9
	C22.8,7.9,22,6.7,22,5c0-1.6,0.6-2.7,1.7-3.5c1.2-0.8,2.6-1.2,4.2-1.2c1.8,0,3.2,0.4,4.3,1.3c1.1,0.9,1.6,2.1,1.7,3.8h-2.1
	c-0.2-2.2-1.6-3.3-4.1-3.3c-1.2,0-2.1,0.2-2.7,0.7c-0.6,0.5-1,1.1-1,2c0,0.3,0,0.6,0.1,0.8C24.3,5.9,24.5,6.1,24.7,6.3L24.7,6.3z
	 M43.2,2.6v14.5H41V2.6h-5.5V0.7h13.2v1.9H43.2L43.2,2.6z M61.4,17.1l-1.8-5h-6.9l-1.9,5h-2.3l6.5-16.4h2.4l6.4,16.4H61.4L61.4,17.1
	z M56.1,2.7l-2.8,7.6h5.6L56.1,2.7L56.1,2.7z M72.5,8.4h7.2v8.7h-1.4L77.7,15c-1.3,1.6-3.1,2.4-5.3,2.4c-2.3,0-4.2-0.8-5.7-2.3
	c-1.4-1.6-2.2-3.6-2.2-6.1c0-2.5,0.7-4.6,2.1-6.2c1.4-1.6,3.4-2.5,5.8-2.5c1.1,0,2.2,0.2,3.2,0.6c1,0.4,1.8,1,2.5,1.8
	c0.7,0.8,1.1,1.8,1.2,3h-2.1c-0.2-1.1-0.7-1.9-1.6-2.6c-0.9-0.7-1.9-1-3.2-1c-1.8,0-3.2,0.6-4.2,1.8c-1,1.2-1.6,2.9-1.6,5
	c0,2.1,0.5,3.7,1.6,4.9c1,1.2,2.5,1.8,4.2,1.8c1.7,0,2.9-0.5,3.8-1.5c0.9-1,1.3-2.3,1.4-4h-5.3V8.4L72.5,8.4z M94.4,15.2v1.9H82.9
	V0.7h11.4v1.9h-9.2v5.1h8.6v1.8h-8.6v5.7H94.4L94.4,15.2z M99.3,6.3c0.2,0.2,0.4,0.3,0.6,0.4c0.2,0.1,0.5,0.2,0.9,0.4
	c0.4,0.1,0.8,0.2,1,0.3c0.3,0.1,0.7,0.1,1.2,0.3c0.7,0.1,1.2,0.3,1.7,0.4c0.4,0.1,1,0.3,1.6,0.6c0.6,0.3,1.1,0.5,1.5,0.9
	c0.4,0.3,0.7,0.7,0.9,1.3c0.3,0.5,0.4,1.1,0.4,1.8c0,1.2-0.3,2.1-1,2.9c-0.6,0.8-1.4,1.3-2.4,1.6c-0.9,0.3-1.9,0.5-3.1,0.5
	c-2.1,0-3.7-0.5-4.9-1.5c-1.2-1-1.9-2.4-1.9-4.3h2.1c0,1.4,0.5,2.4,1.4,3.1c0.9,0.6,2.1,1,3.5,1c1.1,0,2.1-0.2,2.9-0.7
	c0.8-0.5,1.2-1.2,1.2-2.3c0-0.5-0.1-0.9-0.3-1.3c-0.2-0.3-0.6-0.6-1-0.9c-0.5-0.2-0.9-0.4-1.4-0.5c-0.5-0.1-1.1-0.3-1.8-0.5
	c-0.1,0-0.2,0-0.2,0c-1.7-0.4-2.8-0.7-3.3-0.9c-1.6-0.7-2.4-1.9-2.4-3.6c0-1.6,0.6-2.7,1.7-3.5c1.2-0.8,2.6-1.2,4.2-1.2
	c1.8,0,3.2,0.4,4.3,1.3c1.1,0.9,1.6,2.1,1.7,3.8h-2.1c-0.2-2.2-1.6-3.3-4.1-3.3c-1.2,0-2.1,0.2-2.7,0.7c-0.6,0.5-1,1.1-1,2
	c0,0.3,0,0.6,0.1,0.8C99,5.9,99.1,6.1,99.3,6.3L99.3,6.3z"/>
<path class="st0" d="M3.2,0L0.8,13.8l3.7,0.1c1-1.5,2.4-2.3,4.3-2.3c1.5,0,2.7,0.5,3.5,1.4c0.9,0.9,1.3,2.3,1.3,4
	c0,1.8-0.4,3.1-1.2,4.1c-0.8,1-2,1.4-3.5,1.4c-1.3,0-2.4-0.4-3.2-1.2c-0.9-0.8-1.3-1.8-1.4-3.1H0c0.1,2.4,0.9,4.2,2.5,5.6
	c1.6,1.4,3.6,2.1,6.2,2.1c2.7,0,4.9-0.9,6.6-2.6c1.7-1.7,2.6-3.9,2.6-6.6c0-2.5-0.7-4.5-2.2-6.1c-1.5-1.5-3.4-2.3-5.7-2.3
	C7.8,8.4,6.2,9,5,10.2l1.2-6.6h10.2V0H3.2L3.2,0z"/>
</svg>
